<?xml version="1.0" standalone="no"?>
<!DOCTYPE svg PUBLIC "-//W3C//DTD SVG 20010904//EN"
 "http://www.w3.org/TR/2001/REC-SVG-20010904/DTD/svg10.dtd">
<svg version="1.0" xmlns="http://www.w3.org/2000/svg"
 width="744.000000pt" height="744.000000pt" viewBox="0 0 744.000000 744.000000"
 preserveAspectRatio="xMidYMid meet">
<metadata>
Created by potrace 1.14, written by Peter Selinger 2001-2017
</metadata>
<g transform="translate(0.000000,744.000000) scale(0.100000,-0.100000)"
fill="#000000" stroke="none">
<path d="M410 3720 l0 -3720 603 0 602 0 100 100 c55 55 163 163 240 240 229
228 1739 1741 1752 1755 9 10 12 200 12 815 0 441 -2 801 -4 799 -2 -2 -473
-470 -1045 -1039 -572 -569 -1044 -1036 -1048 -1038 -4 -1 -7 1304 -7 2900 l0
2903 -602 3 -603 2 0 -3720z"/>
<path d="M4774 6390 l-1049 -1050 -960 960 c-528 528 -962 960 -965 960 -3 0
-5 -363 -5 -807 l0 -807 957 -958 c527 -527 963 -958 970 -958 7 0 33 22 59
49 26 27 50 47 53 44 3 -4 6 -2 6 4 0 11 1968 1983 1979 1983 3 0 6 -1307 6
-2905 l-1 -2905 603 0 603 0 0 3720 0 3720 -603 0 -603 0 -1050 -1050z"/>
</g>
</svg>
